<svg width="1440" height="900" viewBox="0 0 1440 900" fill="none" xmlns="http://www.w3.org/2000/svg">
<g clip-path="url(#clip0)">
<rect width="1440" height="900" fill="#FCF7CB"/>
<path d="M154.274 131.893C136.227 127.638 129.188 115.817 135.497 104.693C141.807 93.5681 161.391 102.762 165.65 102.831C169.617 102.894 185.875 93.8164 197.666 81.7051C199.355 79.9701 200.385 77.7199 200.823 75.3384C202.58 65.7664 204.769 59.0604 213.34 53.8133C218.028 50.9434 223.227 51.4145 227.393 54.53C234.953 60.1848 248.265 69.9447 251.402 78.8495C253.113 83.7099 252.756 89.6919 250.006 93.6345C245.629 99.9082 232.959 99.468 225.693 98.6274C222.285 98.2331 218.794 98.8752 215.921 100.751L194.954 114.44C190.85 117.12 188.689 121.905 188.215 126.784C187.53 133.856 184.792 143.353 175.231 145.254C159.623 148.357 153.459 132.456 153.459 132.456" stroke="white" stroke-width="12"/>
<path d="M154.151 133.582L152.182 130.73" stroke="white" stroke-width="12"/>
<path d="M1469.64 131.995C1474.44 114.086 1486.47 107.41 1497.4 114.056C1508.32 120.701 1498.54 139.996 1498.34 144.251C1498.15 148.215 1506.73 164.741 1518.48 176.896C1520.16 178.637 1522.38 179.735 1524.75 180.245C1534.26 182.293 1540.9 184.685 1545.88 193.412C1548.61 198.186 1547.98 203.368 1544.74 207.437C1538.85 214.821 1528.69 227.83 1519.7 230.693C1514.79 232.256 1508.82 231.717 1504.96 228.848C1498.82 224.282 1499.65 211.631 1500.71 204.394C1501.21 201 1500.67 197.491 1498.89 194.562L1485.84 173.188C1483.29 169.004 1478.57 166.698 1473.71 166.076C1466.66 165.175 1457.25 162.15 1455.64 152.535C1453.02 136.84 1469.1 131.164 1469.1 131.164" stroke="white" stroke-width="12"/>
<path d="M799.202 382.787C816.413 375.89 828.97 381.512 830.206 394.241C831.441 406.971 810.132 410.711 806.609 413.105C803.326 415.334 795.247 432.11 792.565 448.799C792.181 451.19 792.632 453.623 793.644 455.823C797.711 464.665 799.777 471.41 795.783 480.632C793.598 485.675 789.073 488.28 783.874 488.127C774.437 487.848 757.934 487.519 750.247 482.038C746.051 479.046 742.903 473.947 742.886 469.14C742.859 461.49 753.477 454.564 759.905 451.073C762.92 449.436 765.407 446.903 766.678 443.716L775.959 420.459C777.775 415.907 776.791 410.749 774.373 406.486C770.867 400.306 767.644 390.962 774.374 383.908C785.358 372.394 799.545 381.858 799.545 381.858" stroke="white" stroke-width="12"/>
<path d="M798.331 381.334L801.582 382.535" stroke="white" stroke-width="12"/>
<path d="M1199.21 768.981C1205.58 786.394 1199.58 798.774 1186.82 799.621C1174.06 800.469 1170.97 779.055 1168.68 775.461C1166.55 772.112 1150.03 763.525 1133.43 760.336C1131.05 759.88 1128.61 760.256 1126.38 761.201C1117.42 764.997 1110.61 766.856 1101.52 762.582C1096.54 760.245 1094.08 755.643 1094.39 750.451C1094.95 741.027 1095.79 724.541 1101.5 717.025C1104.62 712.922 1109.81 709.931 1114.61 710.06C1122.26 710.266 1128.86 721.091 1132.15 727.622C1133.7 730.685 1136.16 733.248 1139.3 734.616L1162.27 744.601C1166.76 746.555 1171.95 745.729 1176.28 743.441C1182.56 740.125 1192 737.189 1198.85 744.13C1210.02 755.46 1200.13 769.352 1200.13 769.352" stroke="white" stroke-width="12"/>
<path d="M1200.69 768.154L1199.39 771.367" stroke="white" stroke-width="12"/>
<path d="M230.444 392.806C234.66 374.749 246.465 367.684 257.603 373.97C268.742 380.255 259.59 399.859 259.531 404.118C259.476 408.086 268.588 424.324 280.725 436.089C282.464 437.774 284.716 438.8 287.099 439.232C296.674 440.968 303.385 443.143 308.651 451.703C311.531 456.385 311.071 461.585 307.964 465.757C302.326 473.329 292.595 486.662 283.697 489.818C278.84 491.541 272.857 491.196 268.909 488.454C262.626 484.091 263.038 471.42 263.863 464.152C264.25 460.743 263.601 457.254 261.719 454.385L247.984 433.447C245.296 429.349 240.506 427.198 235.626 426.736C228.552 426.065 219.05 423.348 217.128 413.791C213.991 398.19 229.879 391.992 229.879 391.992" stroke="white" stroke-width="12"/>
<path d="M228.754 392.686L231.602 390.711" stroke="white" stroke-width="12"/>
<path d="M692.417 137.487C703.347 146.935 703.945 157.637 695.575 163.045C687.205 168.452 676.996 155.039 674.079 153.456C671.418 152.011 657.454 152.371 645.127 156.249C642.817 156.975 640.871 158.504 639.366 160.401C634.915 166.01 630.991 169.596 623.463 170.109C620.822 170.289 618.507 169.518 616.71 168.039C609.418 162.042 603.405 143.358 607.51 134.857C608.645 132.507 610.388 130.485 612.502 129.383C617.437 126.811 625.254 130.889 630.107 134.047C632.983 135.918 636.372 136.979 639.787 136.647L656.271 135.04C661.149 134.565 665.231 131.268 668.139 127.323C671.272 123.072 676.223 118.785 682.762 120.701C694.661 124.187 693.183 137.392 693.183 137.392" stroke="white" stroke-width="10"/>
<path d="M693.111 136.364L693.442 139.045" stroke="white" stroke-width="10"/>
<path d="M1206.52 200.181C1224.44 204.946 1231.15 216.961 1224.52 227.902C1217.9 238.844 1198.59 229.099 1194.33 228.91C1190.37 228.734 1173.86 237.348 1161.73 249.121C1159.99 250.807 1158.9 253.027 1158.39 255.396C1156.37 264.914 1153.99 271.555 1145.27 276.558C1140.5 279.294 1135.32 278.676 1131.24 275.444C1123.85 269.577 1110.82 259.444 1107.93 250.454C1106.36 245.547 1106.89 239.578 1109.75 235.715C1114.3 229.567 1126.95 230.366 1134.19 231.412C1137.59 231.903 1141.1 231.36 1144.02 229.566L1165.37 216.476C1169.55 213.913 1171.84 209.191 1172.45 204.328C1173.34 197.278 1176.34 187.862 1185.95 186.232C1201.64 183.573 1207.35 199.642 1207.35 199.642" stroke="white" stroke-width="12"/>
<path d="M1206.69 198.496L1208.58 201.403" stroke="white" stroke-width="12"/>
<path d="M306.624 189.94C307.094 177.873 313.772 171.9 321.67 174.546C329.567 177.192 326.132 190.857 326.619 193.588C327.055 196.033 334.302 204.679 343.042 210.699C345.036 212.073 347.448 212.625 349.869 212.639C355.546 212.672 359.781 213.471 363.897 217.961C364.55 218.674 365.052 219.44 365.408 220.24C369.248 228.865 355.33 247.667 345.909 247.044C344.887 246.977 343.902 246.756 343.014 246.363C339.01 244.592 337.522 238.08 336.97 233.305C336.577 229.896 335.305 226.584 332.914 224.123L324.793 215.765C321.378 212.25 316.236 211.205 311.336 211.112C307.22 211.034 302.645 209.758 300.696 205.001C296.767 195.411 306.163 189.489 306.163 189.489" stroke="white" stroke-width="7"/>
<path d="M305.529 190.072L307.107 188.458" stroke="white" stroke-width="7"/>
<path d="M1406.97 282.506C1419.02 283.344 1424.79 290.201 1421.9 298.014C1419.02 305.827 1405.46 301.977 1402.72 302.381C1400.26 302.742 1391.4 309.722 1385.12 318.274C1383.68 320.226 1383.06 322.62 1382.97 325.04C1382.76 330.713 1381.84 334.921 1377.22 338.899C1376.49 339.53 1375.71 340.008 1374.9 340.34C1366.16 343.915 1347.79 329.431 1348.7 320.033C1348.8 319.013 1349.05 318.036 1349.47 317.16C1351.36 313.213 1357.92 311.924 1362.71 311.517C1366.12 311.228 1369.47 310.057 1372.01 307.743L1380.61 299.88C1384.23 296.573 1385.43 291.466 1385.67 286.571C1385.87 282.459 1387.29 277.925 1392.1 276.122C1401.81 272.487 1407.44 282.059 1407.44 282.059" stroke="white" stroke-width="7"/>
<path d="M1406.88 281.407L1408.44 283.034" stroke="white" stroke-width="7"/>
<path d="M641.183 422.913C647.738 433.055 645.71 441.782 637.727 444.159C629.744 446.536 624.697 433.381 622.728 431.427C620.965 429.678 610.064 426.772 599.452 426.873C597.031 426.896 594.74 427.831 592.751 429.212C588.088 432.45 584.164 434.232 578.214 432.925C577.27 432.718 576.419 432.38 575.668 431.93C567.566 427.083 568.14 403.697 576.205 398.788C577.08 398.255 578.013 397.87 578.965 397.681C583.259 396.827 588.221 401.299 591.419 404.888C593.701 407.45 596.647 409.429 600.018 410.067L611.467 412.234C616.283 413.146 621.091 411.044 625.153 408.302C628.565 405.998 633.041 404.412 637.372 407.182C646.101 412.768 641.82 423.017 641.82 423.017" stroke="white" stroke-width="7"/>
<path d="M642.003 422.175L641.641 424.403" stroke="white" stroke-width="7"/>
<path d="M1163.92 609.813C1153.58 616.056 1144.92 613.763 1142.79 605.711C1140.65 597.66 1153.96 593.015 1155.97 591.106C1157.77 589.398 1161.01 578.59 1161.23 567.981C1161.28 565.56 1160.42 563.241 1159.1 561.211C1156 556.452 1154.34 552.475 1155.83 546.568C1156.06 545.631 1156.43 544.79 1156.9 544.053C1161.99 536.103 1185.35 537.389 1190.01 545.599C1190.52 546.491 1190.87 547.435 1191.03 548.393C1191.76 552.71 1187.14 557.534 1183.45 560.621C1180.82 562.824 1178.75 565.708 1178.01 569.058L1175.5 580.436C1174.44 585.222 1176.39 590.091 1179.01 594.235C1181.21 597.716 1182.66 602.239 1179.76 606.482C1173.91 615.038 1163.8 610.446 1163.8 610.446" stroke="white" stroke-width="7"/>
<path d="M1164.63 610.655L1162.41 610.225" stroke="white" stroke-width="7"/>
<path d="M172.726 545.28C184.794 545.724 190.781 552.389 188.152 560.293C185.523 568.196 171.851 564.79 169.121 565.283C166.677 565.725 158.046 572.99 152.045 581.742C150.676 583.74 150.129 586.153 150.12 588.574C150.099 594.251 149.31 598.487 144.828 602.613C144.117 603.268 143.352 603.772 142.553 604.129C133.936 607.988 115.104 594.11 115.706 584.688C115.771 583.666 115.991 582.68 116.381 581.792C118.144 577.784 124.652 576.282 129.426 575.72C132.834 575.319 136.144 574.04 138.6 571.644L146.94 563.505C150.447 560.082 151.481 554.938 151.564 550.037C151.633 545.921 152.899 541.344 157.652 539.385C167.233 535.435 173.176 544.818 173.176 544.818" stroke="white" stroke-width="7"/>
<path d="M172.591 544.185L174.209 545.76" stroke="white" stroke-width="7"/>
<path d="M934.872 775.163C928.87 785.641 920.186 787.845 914.41 781.843C908.634 775.842 918.005 765.32 918.837 762.673C919.582 760.304 917.161 749.285 912.201 739.904C911.069 737.763 909.187 736.157 907.047 735.024C902.03 732.367 898.646 729.699 897.076 723.813C896.827 722.879 896.737 721.967 896.791 721.094C897.38 711.671 918.421 701.447 926.483 706.36C927.358 706.893 928.129 707.545 928.734 708.304C931.463 711.727 929.768 718.187 928.046 722.676C926.818 725.88 926.411 729.405 927.392 732.693L930.721 743.86C932.122 748.557 936.196 751.863 940.497 754.214C944.109 756.189 947.573 759.437 947.099 764.556C946.143 774.876 935.072 775.776 935.072 775.776" stroke="white" stroke-width="7"/>
<path d="M935.904 775.553L933.758 776.253" stroke="white" stroke-width="7"/>
<path d="M1055.88 137.845C1055.07 149.894 1048.22 155.676 1040.4 152.807C1032.58 149.938 1036.4 136.376 1035.99 133.633C1035.63 131.177 1028.63 122.328 1020.06 116.064C1018.11 114.634 1015.71 114.013 1013.29 113.931C1007.62 113.738 1003.41 112.819 999.421 108.214C998.789 107.483 998.309 106.703 997.976 105.894C994.381 97.1635 1008.83 78.763 1018.23 79.6516C1019.25 79.7481 1020.22 79.9971 1021.1 80.415C1025.05 82.2988 1026.35 88.8495 1026.77 93.6389C1027.07 97.0569 1028.25 100.405 1030.57 102.932L1038.45 111.516C1041.76 115.126 1046.87 116.317 1051.77 116.548C1055.88 116.743 1060.42 118.148 1062.23 122.958C1065.89 132.655 1056.33 138.309 1056.33 138.309" stroke="white" stroke-width="7"/>
<path d="M1056.98 137.744L1055.35 139.313" stroke="white" stroke-width="7"/>
<path d="M526.499 115.233C528.27 133.69 519.339 144.155 506.777 141.756C494.214 139.356 496.627 117.856 495.322 113.801C494.108 110.024 480.286 97.5462 465.028 90.2733C462.842 89.2314 460.38 88.9789 457.984 89.3303C448.356 90.7425 441.302 90.8251 433.578 84.3948C429.354 80.8779 428.129 75.8031 429.741 70.8575C432.666 61.8809 437.629 46.1384 445.054 40.3063C449.106 37.1231 454.885 35.5387 459.503 36.8762C466.85 39.0044 470.505 51.1437 472.045 58.2944C472.767 61.6486 474.497 64.7479 477.196 66.8655L496.898 82.3207C500.755 85.3458 505.981 85.8542 510.752 84.7343C517.67 83.1106 527.543 82.6504 532.416 91.0938C540.37 104.876 527.294 115.824 527.294 115.824" stroke="white" stroke-width="12"/>
<path d="M528.138 114.806L526.07 117.587" stroke="white" stroke-width="12"/>
<path d="M1474.95 504.555C1456.45 505.763 1446.26 496.517 1449.04 484.034C1451.82 471.55 1473.24 474.616 1477.33 473.436C1481.14 472.337 1494.04 458.902 1501.77 443.873C1502.88 441.72 1503.2 439.267 1502.93 436.861C1501.81 427.194 1501.94 420.141 1508.6 412.617C1512.25 408.502 1517.36 407.432 1522.25 409.193C1531.13 412.39 1546.72 417.831 1552.32 425.43C1555.38 429.577 1556.79 435.402 1555.31 439.977C1552.96 447.256 1540.71 450.54 1533.52 451.86C1530.15 452.48 1526.99 454.115 1524.8 456.748L1508.75 475.97C1505.61 479.733 1504.94 484.941 1505.91 489.745C1507.33 496.708 1507.48 506.591 1498.9 511.204C1484.88 518.735 1474.33 505.331 1474.33 505.331" stroke="white" stroke-width="12"/>
<path d="M543.623 602.311C531.56 588.229 532.848 574.532 544.505 569.271C556.162 564.009 566.553 582.986 569.952 585.553C573.118 587.945 591.601 590.204 608.266 587.379C610.653 586.974 612.813 585.765 614.571 584.1C621.636 577.407 627.359 573.283 637.375 574.102C642.854 574.55 646.774 577.997 648.3 582.97C651.07 591.996 656.062 607.729 653.342 616.77C651.858 621.704 648.041 626.324 643.494 627.885C636.259 630.37 626.288 622.541 620.916 617.576C618.397 615.247 615.199 613.707 611.773 613.527L586.767 612.213C581.872 611.956 577.304 614.545 574.045 618.206C569.319 623.512 561.507 629.567 552.665 625.461C538.231 618.761 542.633 602.284 542.633 602.284" stroke="white" stroke-width="12"/>
<path d="M542.528 603.603L542.62 600.138" stroke="white" stroke-width="12"/>
<path d="M426.043 748.607C444.119 744.471 455.647 751.978 454.888 764.745C454.128 777.512 432.496 777.892 428.643 779.708C425.054 781.4 414.463 796.714 409.218 812.783C408.466 815.085 408.533 817.559 409.191 819.889C411.833 829.256 412.824 836.24 407.443 844.728C404.5 849.371 399.626 851.24 394.514 850.279C385.235 848.536 368.984 845.643 362.243 839.033C358.564 835.425 356.248 829.898 356.979 825.147C358.142 817.586 369.709 812.396 376.601 809.948C379.834 808.8 382.685 806.684 384.437 803.734L397.222 782.204C399.725 777.99 399.556 772.742 397.83 768.154C395.328 761.504 393.598 751.773 401.343 745.852C413.985 736.187 426.527 747.743 426.527 747.743" stroke="white" stroke-width="12"/>
<path d="M425.409 747.036L428.434 748.729" stroke="white" stroke-width="12"/>
<path d="M980.612 467.247C995.055 455.618 1008.71 457.323 1013.61 469.135C1018.51 480.947 999.23 490.755 996.56 494.074C994.073 497.166 991.252 515.571 993.568 532.315C993.899 534.713 995.042 536.909 996.653 538.716C1003.13 545.982 1007.08 551.828 1005.95 561.815C1005.34 567.277 1001.77 571.091 996.755 572.465C987.649 574.958 971.771 579.469 962.817 576.475C957.93 574.841 953.429 570.885 952.007 566.293C949.744 558.985 957.873 549.257 962.999 544.039C965.404 541.592 967.041 538.442 967.325 535.023L969.4 510.069C969.806 505.184 967.357 500.54 963.798 497.17C958.638 492.285 952.824 484.292 957.197 475.579C964.334 461.356 980.669 466.258 980.669 466.258" stroke="white" stroke-width="12"/>
<path d="M979.354 466.113L982.815 466.311" stroke="white" stroke-width="12"/>
<path d="M283.123 705.39C269.121 706.763 261.166 700.004 262.966 690.469C264.766 680.933 281.083 682.728 284.158 681.732C286.956 680.825 296.032 670.779 301.572 659.512C302.64 657.339 302.871 654.875 302.537 652.477C301.579 645.62 301.701 640.466 306.369 634.835C307.886 633.004 309.789 631.912 311.841 631.537C321.128 629.838 339.125 638.778 342.13 647.728C342.882 649.965 343.064 652.35 342.467 654.427C340.983 659.593 332.979 662.371 327.497 663.69C324.161 664.493 321.058 666.216 318.946 668.92L309.233 681.356C306.216 685.219 305.804 690.449 306.623 695.282C307.476 700.311 307.111 706.555 301.448 709.84C291.004 715.898 282.676 705.994 282.676 705.994" stroke="white" stroke-width="9"/>
<path d="M283.449 706.633L281.335 705.068" stroke="white" stroke-width="9"/>
<path d="M705.391 739.605C712.365 722.424 725.125 717.282 735.15 725.224C745.175 733.166 733.084 751.107 732.363 755.305C731.692 759.216 738.167 776.674 748.326 790.184C749.781 792.119 751.846 793.483 754.133 794.28C763.322 797.486 769.612 800.678 773.482 809.953C775.599 815.026 774.335 820.091 770.618 823.729C763.87 830.332 752.183 841.989 742.902 843.721C737.836 844.667 731.98 843.396 728.506 840.074C722.978 834.786 725.358 822.333 727.303 815.282C728.216 811.975 728.117 808.427 726.704 805.3L716.394 782.481C714.376 778.014 709.979 775.144 705.231 773.928C698.348 772.165 689.383 768.003 688.972 758.263C688.301 742.364 704.96 738.713 704.96 738.713" stroke="white" stroke-width="12"/>
<path d="M703.74 739.224L706.861 737.716" stroke="white" stroke-width="12"/>
<path d="M833.977 206.299C832.729 187.799 841.952 177.591 854.442 180.345C866.931 183.099 863.911 204.522 865.1 208.612C866.208 212.423 879.67 225.286 894.717 232.988C896.872 234.092 899.326 234.414 901.731 234.13C911.396 232.991 918.449 233.108 925.987 239.755C930.11 243.39 931.191 248.497 929.44 253.395C926.262 262.285 920.855 277.881 913.269 283.501C909.128 286.568 903.306 287.988 898.728 286.52C891.444 284.185 888.134 271.947 886.797 264.756C886.171 261.382 884.529 258.235 881.891 256.042L862.634 240.036C858.865 236.902 853.655 236.246 848.854 237.231C841.893 238.658 832.011 238.839 827.379 230.261C819.818 216.259 833.199 205.686 833.199 205.686" stroke="white" stroke-width="12"/>
<path d="M832.326 206.679L834.472 203.957" stroke="white" stroke-width="12"/>
<path d="M490.873 283.537C479.423 292.186 468.905 290.541 465.394 281.288C461.883 272.034 477.034 264.908 479.178 262.405C481.133 260.123 483.687 246.503 482.491 233.731C482.265 231.32 481.178 229.097 479.639 227.227C475.127 221.747 472.467 217.192 473.534 209.782C473.901 207.232 475.091 205.175 476.843 203.74C484.146 197.757 503.798 195.843 511.197 201.707C513.191 203.288 514.748 205.367 515.367 207.609C516.835 212.926 511.275 219.653 507.201 223.712C504.77 226.133 503.023 229.224 502.633 232.633L500.774 248.887C500.218 253.757 502.588 258.437 505.83 262.113C509.292 266.039 512.394 271.72 509.184 277.652C503.323 288.483 490.805 284.3 490.805 284.3" stroke="white" stroke-width="10"/>
<path d="M491.819 284.445L489.147 284.209" stroke="white" stroke-width="10"/>
<path d="M1307.81 463.818C1299.51 452.11 1301.48 441.647 1310.83 438.42C1320.19 435.192 1326.85 450.553 1329.29 452.773C1331.51 454.797 1345.04 457.764 1357.85 456.957C1360.26 456.805 1362.52 455.786 1364.43 454.305C1370.05 449.962 1374.68 447.442 1382.06 448.734C1384.6 449.179 1386.61 450.431 1388 452.225C1393.75 459.708 1395.07 479.409 1388.98 486.626C1387.34 488.571 1385.22 490.064 1382.95 490.614C1377.6 491.92 1371.04 486.157 1367.11 481.961C1364.76 479.458 1361.73 477.617 1358.33 477.124L1342.14 474.771C1337.29 474.066 1332.54 476.293 1328.77 479.421C1324.74 482.762 1318.96 485.689 1313.13 482.3C1302.49 476.112 1307.05 463.727 1307.05 463.727" stroke="white" stroke-width="10"/>
<path d="M1306.87 464.736L1307.19 462.072" stroke="white" stroke-width="10"/>
<path d="M436.624 452.3C441.017 438.64 450.568 433.936 458.762 439.488C466.956 445.039 458.659 459.581 458.344 462.863C458.057 465.854 463.801 478.465 472.124 488.226C473.695 490.069 475.863 491.262 478.197 491.906C485.04 493.795 489.836 495.992 493.224 502.667C494.391 504.965 494.6 507.332 493.992 509.513C491.458 518.608 476.482 531.475 467.056 530.933C464.516 530.787 462.046 529.981 460.25 528.503C455.992 524.997 456.672 516.296 457.671 510.633C458.267 507.254 457.919 503.72 456.277 500.707L448.45 486.341C446.106 482.037 441.475 479.572 436.708 478.429C431.618 477.208 425.814 474.344 425.028 467.645C423.595 455.414 436.24 451.637 436.24 451.637" stroke="white" stroke-width="10"/>
<path d="M435.329 452.101L437.65 450.758" stroke="white" stroke-width="10"/>
<path d="M609.536 759.921C619.59 770.16 619.315 780.803 610.591 785.478C601.867 790.152 592.848 776.046 590.088 774.243C587.573 772.598 573.738 771.822 561.226 774.655C558.865 775.189 556.801 776.554 555.145 778.322C550.292 783.502 546.118 786.727 538.633 786.625C536.056 786.59 533.863 785.675 532.214 784.123C525.34 777.651 520.908 758.411 525.769 750.317C527.079 748.136 528.94 746.324 531.084 745.421C536.167 743.279 543.555 747.926 548.105 751.443C550.82 753.541 554.11 754.875 557.541 754.822L573.899 754.57C578.8 754.494 583.135 751.54 586.362 747.851C589.809 743.912 595.043 740.103 601.34 742.522C612.836 746.937 610.302 759.89 610.302 759.89" stroke="white" stroke-width="10"/>
<path d="M610.314 758.866L610.425 761.547" stroke="white" stroke-width="10"/>
<path d="M1140.78 404.454C1154.3 409.261 1158.71 418.951 1152.91 426.972C1147.11 434.992 1132.83 426.256 1129.56 425.842C1126.58 425.464 1113.8 430.821 1103.79 438.843C1101.9 440.357 1100.64 442.488 1099.92 444.801C1097.83 451.583 1095.48 456.309 1088.71 459.493C1086.38 460.589 1084 460.726 1081.84 460.052C1072.83 457.242 1060.42 441.881 1061.25 432.476C1061.48 429.941 1062.36 427.498 1063.89 425.747C1067.52 421.598 1076.2 422.543 1081.83 423.714C1085.19 424.412 1088.73 424.172 1091.79 422.623L1106.39 415.237C1110.76 413.025 1113.37 408.471 1114.66 403.742C1116.03 398.691 1119.07 392.977 1125.79 392.396C1138.06 391.335 1141.45 404.09 1141.45 404.09" stroke="white" stroke-width="10"/>
<path d="M1141.01 403.165L1142.29 405.526" stroke="white" stroke-width="10"/>
<path d="M79.5265 729.73C70.8523 718.3 72.4747 707.777 81.7208 704.247C90.967 700.716 98.1251 715.851 100.633 717.99C102.92 719.941 116.545 722.465 129.315 721.241C131.725 721.01 133.946 719.918 135.812 718.375C141.283 713.851 145.831 711.182 153.243 712.232C155.795 712.594 157.854 713.78 159.293 715.528C165.291 722.819 167.248 742.466 161.4 749.878C159.824 751.876 157.748 753.437 155.507 754.061C150.193 755.541 143.455 749.995 139.387 745.929C136.96 743.504 133.865 741.763 130.456 741.381L114.198 739.557C109.327 739.011 104.652 741.392 100.983 744.642C97.0646 748.112 91.3898 751.226 85.4507 748.029C74.6074 742.191 78.7629 729.665 78.7629 729.665" stroke="white" stroke-width="10"/>
<path d="M78.6208 730.678L78.851 728.006" stroke="white" stroke-width="10"/>
<path d="M814.877 606.909C829.03 604.542 837.593 610.869 836.421 620.697C835.249 630.525 818.521 629.828 815.462 631.054C812.672 632.172 804.104 643.063 799.252 654.938C798.336 657.179 798.271 659.653 798.77 662.023C800.232 668.97 800.482 674.238 796.106 680.312C794.6 682.403 792.593 683.676 790.376 684.137C781.133 686.059 762.827 678.659 758.983 670.036C757.947 667.712 757.529 665.149 758.019 662.874C759.178 657.482 767.221 654.093 772.711 652.381C775.987 651.36 778.966 649.428 780.89 646.587L790.061 633.04C792.809 628.981 792.874 623.735 791.702 618.976C790.45 613.894 790.331 607.422 795.922 603.649C806.131 596.762 815.29 606.264 815.29 606.264" stroke="white" stroke-width="10"/>
<path d="M814.459 605.667L816.719 607.113" stroke="white" stroke-width="10"/>
<path d="M874.353 39.0704C886.043 30.7485 896.51 32.6906 899.758 42.04C903.005 51.3895 887.659 58.0832 885.444 60.5249C883.425 62.7511 880.487 76.2932 881.321 89.094C881.479 91.5102 882.503 93.7631 883.988 95.6753C888.343 101.282 890.873 105.91 889.597 113.286C889.158 115.826 887.91 117.848 886.118 119.232C878.649 125.006 858.951 126.363 851.72 120.292C849.771 118.656 848.274 116.534 847.719 114.274C846.402 108.918 852.151 102.352 856.338 98.4096C858.836 96.0578 860.67 93.0173 861.156 89.621L863.474 73.4261C864.169 68.5742 861.931 63.829 858.795 60.0626C855.445 56.0404 852.506 50.2734 855.882 44.4345C862.048 33.774 874.442 38.3092 874.442 38.3092" stroke="white" stroke-width="10"/>
<path d="M873.433 38.1363L876.097 38.4477" stroke="white" stroke-width="10"/>
<path d="M128.624 307.306C114.069 303.874 108.392 294.341 113.48 285.368C118.569 276.396 134.364 283.812 137.799 283.867C140.942 283.917 153.654 276.851 163.117 267.34C164.825 265.623 165.844 263.368 166.297 260.99C167.696 253.643 169.56 248.436 176.261 244.334C178.826 242.764 181.58 242.434 184.135 243.168C193.209 245.775 207.022 258.917 207.751 268.33C207.978 271.261 207.367 274.249 205.832 276.45C202.502 281.223 193.219 281.178 187.259 280.588C183.844 280.25 180.347 280.88 177.475 282.756L162.727 292.385C158.623 295.064 156.519 299.873 155.812 304.723C155.016 310.183 152.562 316.682 145.526 318.081C132.938 320.584 127.967 307.759 127.967 307.759" stroke="white" stroke-width="10"/>
<path d="M128.525 308.668L126.937 306.368" stroke="white" stroke-width="10"/>
<path d="M1295.09 101.014C1298.96 86.5696 1308.66 81.1855 1317.47 86.5451C1326.29 91.9047 1318.39 107.466 1318.23 110.898C1318.09 114.039 1324.76 126.96 1333.98 136.708C1335.65 138.467 1337.87 139.555 1340.23 140.08C1347.53 141.702 1352.68 143.724 1356.58 150.547C1358.07 153.158 1358.31 155.921 1357.5 158.452C1354.62 167.443 1341.06 180.849 1331.63 181.291C1328.7 181.429 1325.73 180.727 1323.58 179.126C1318.91 175.652 1319.23 166.374 1320.01 160.435C1320.45 157.032 1319.92 153.518 1318.14 150.589L1308.96 135.555C1306.41 131.371 1301.67 129.122 1296.84 128.267C1291.41 127.306 1284.98 124.655 1283.8 117.579C1281.68 104.921 1294.65 100.343 1294.65 100.343" stroke="white" stroke-width="10"/>
<path d="M1293.73 100.873L1296.07 99.3558" stroke="white" stroke-width="10"/>
<path d="M719.309 224.532C733.19 218.969 743.317 223.503 744.314 233.77C745.31 244.036 728.125 247.053 725.283 248.983C722.682 250.75 716.346 263.841 714.074 277.064C713.664 279.451 714.127 281.881 715.124 284.088C718.205 290.902 719.674 296.235 716.551 303.444C715.356 306.203 713.293 308.057 710.781 308.926C701.858 312.012 683 309.203 676.99 301.922C675.119 299.655 673.9 296.859 673.89 294.176C673.869 288.356 681.49 283.055 686.705 280.109C689.693 278.422 692.191 275.896 693.463 272.709L699.991 256.351C701.807 251.798 700.763 246.655 698.552 242.28C696.063 237.355 694.333 230.627 699.285 225.436C708.144 216.15 719.586 223.783 719.586 223.783" stroke="white" stroke-width="10"/>
<path d="M718.607 223.36L721.229 224.329" stroke="white" stroke-width="10"/>
<path d="M1359.83 693.946C1364.96 707.99 1360.12 717.974 1349.83 718.658C1339.54 719.341 1337.05 702.071 1335.21 699.172C1333.52 696.518 1320.63 689.787 1307.48 687.113C1305.11 686.631 1302.66 687.019 1300.43 687.949C1293.52 690.82 1288.15 692.127 1281.04 688.786C1278.31 687.507 1276.52 685.388 1275.73 682.85C1272.92 673.838 1276.3 655.074 1283.76 649.289C1286.09 647.488 1288.92 646.354 1291.6 646.427C1297.42 646.583 1302.48 654.362 1305.27 659.664C1306.86 662.702 1309.31 665.276 1312.46 666.644L1328.61 673.667C1333.11 675.621 1338.28 674.735 1342.72 672.658C1347.72 670.32 1354.5 668.796 1359.53 673.904C1368.55 683.041 1360.57 694.245 1360.57 694.245" stroke="white" stroke-width="10"/>
<path d="M1361.02 693.279L1359.97 695.871" stroke="white" stroke-width="10"/>
</g>
<defs>
<clipPath id="clip0">
<rect width="1440" height="900" fill="white"/>
</clipPath>
</defs>
</svg>
